<svg width="24" height="24" viewBox="0 0 24 24" fill="none" xmlns="http://www.w3.org/2000/svg">
<path d="M7.5 21.75H18.375H20.175C21.075 21.75 21.75 21.075 21.75 20.25C21.75 20.175 21.75 20.175 21.75 20.1L20.4 5.1C20.325 4.35 19.65 3.75 18.825 3.75" stroke="#1EA59A" stroke-width="2" stroke-linecap="round" stroke-linejoin="round"/>
<path fill-rule="evenodd" clip-rule="evenodd" d="M5.85 3.75H18.75C19.575 3.75 20.25 4.425 20.25 5.25C20.25 5.325 20.25 5.325 20.25 5.4L18.9 20.4C18.825 21.15 18.15 21.75 17.4 21.75H4.5C3.675 21.75 3 21.075 3 20.25C3 20.175 3 20.175 3 20.1L4.35 5.1C4.425 4.35 5.025 3.75 5.85 3.75Z" stroke="#1EA59A" stroke-width="2" stroke-linecap="round" stroke-linejoin="round"/>
<path d="M9.75 17.625H12.9" stroke="#1EA59A" stroke-width="2" stroke-linecap="round" stroke-linejoin="round"/>
<path d="M9 11.775L10.35 13.875L14.625 9.59998" stroke="#1EA59A" stroke-width="2" stroke-linecap="round" stroke-linejoin="round"/>
<path d="M9 6C8.55 6 8.25 5.625 8.25 5.175V3.075C8.25 2.625 8.55 2.25 9 2.25C9.45 2.25 9.75 2.625 9.75 3.075" stroke="#1EA59A" stroke-width="2" stroke-linecap="round" stroke-linejoin="round"/>
<path d="M15 6C14.55 6 14.25 5.625 14.25 5.175V3.075C14.25 2.625 14.55 2.25 15 2.25C15.45 2.25 15.75 2.625 15.75 3.075" stroke="#1EA59A" stroke-width="2" stroke-linecap="round" stroke-linejoin="round"/>
</svg>
