<svg width="90" height="100" viewBox="0 0 90 100" fill="none" xmlns="http://www.w3.org/2000/svg">
<g opacity="0.5">
<rect width="1.47541" height="1.47783" fill="#404852"/>
<rect x="9.83606" width="1.47541" height="1.47783" fill="#404852"/>
<rect x="19.6721" width="1.47541" height="1.47783" fill="#404852"/>
<rect x="29.5082" width="1.47541" height="1.47783" fill="#404852"/>
<rect x="39.3442" width="1.47541" height="1.47783" fill="#404852"/>
<rect x="49.1803" width="1.47541" height="1.47783" fill="#404852"/>
<rect x="59.0164" width="1.47541" height="1.47783" fill="#404852"/>
<rect x="68.8525" width="1.47541" height="1.47783" fill="#404852"/>
<rect x="78.6885" width="1.47541" height="1.47783" fill="#404852"/>
<rect x="88.5246" width="1.47541" height="1.47783" fill="#404852"/>
<rect y="9.85217" width="1.47541" height="1.47783" fill="#404852"/>
<rect x="9.83606" y="9.85229" width="1.47541" height="1.47783" fill="#404852"/>
<rect x="19.6721" y="9.85229" width="1.47541" height="1.47783" fill="#404852"/>
<rect x="29.5082" y="9.85229" width="1.47541" height="1.47783" fill="#404852"/>
<rect x="39.3442" y="9.85229" width="1.47541" height="1.47783" fill="#404852"/>
<rect x="49.1803" y="9.85229" width="1.47541" height="1.47783" fill="#404852"/>
<rect x="59.0164" y="9.85229" width="1.47541" height="1.47783" fill="#404852"/>
<rect x="68.8525" y="9.85229" width="1.47541" height="1.47783" fill="#404852"/>
<rect x="78.6885" y="9.85229" width="1.47541" height="1.47783" fill="#404852"/>
<rect x="88.5246" y="9.85229" width="1.47541" height="1.47783" fill="#404852"/>
<rect y="19.7045" width="1.47541" height="1.47783" fill="#404852"/>
<rect x="9.83606" y="19.7043" width="1.47541" height="1.47783" fill="#404852"/>
<rect x="19.6721" y="19.7043" width="1.47541" height="1.47783" fill="#404852"/>
<rect x="29.5082" y="19.7043" width="1.47541" height="1.47783" fill="#404852"/>
<rect x="39.3442" y="19.7043" width="1.47541" height="1.47783" fill="#404852"/>
<rect x="49.1803" y="19.7043" width="1.47541" height="1.47783" fill="#404852"/>
<rect x="59.0164" y="19.7043" width="1.47541" height="1.47783" fill="#404852"/>
<rect x="68.8525" y="19.7043" width="1.47541" height="1.47783" fill="#404852"/>
<rect x="78.6885" y="19.7043" width="1.47541" height="1.47783" fill="#404852"/>
<rect x="88.5246" y="19.7043" width="1.47541" height="1.47783" fill="#404852"/>
<rect y="29.5566" width="1.47541" height="1.47783" fill="#404852"/>
<rect x="9.83606" y="29.5566" width="1.47541" height="1.47783" fill="#404852"/>
<rect x="19.6721" y="29.5566" width="1.47541" height="1.47783" fill="#404852"/>
<rect x="29.5082" y="29.5566" width="1.47541" height="1.47783" fill="#404852"/>
<rect x="39.3442" y="29.5566" width="1.47541" height="1.47783" fill="#404852"/>
<rect x="49.1803" y="29.5566" width="1.47541" height="1.47783" fill="#404852"/>
<rect x="59.0164" y="29.5566" width="1.47541" height="1.47783" fill="#404852"/>
<rect x="68.8525" y="29.5566" width="1.47541" height="1.47783" fill="#404852"/>
<rect x="78.6885" y="29.5566" width="1.47541" height="1.47783" fill="#404852"/>
<rect x="88.5246" y="29.5566" width="1.47541" height="1.47783" fill="#404852"/>
<rect y="39.4088" width="1.47541" height="1.47783" fill="#404852"/>
<rect x="9.83606" y="39.4088" width="1.47541" height="1.47783" fill="#404852"/>
<rect x="19.6721" y="39.4088" width="1.47541" height="1.47783" fill="#404852"/>
<rect x="29.5082" y="39.4088" width="1.47541" height="1.47783" fill="#404852"/>
<rect x="39.3442" y="39.4088" width="1.47541" height="1.47783" fill="#404852"/>
<rect x="49.1803" y="39.4088" width="1.47541" height="1.47783" fill="#404852"/>
<rect x="59.0164" y="39.4088" width="1.47541" height="1.47783" fill="#404852"/>
<rect x="68.8525" y="39.4088" width="1.47541" height="1.47783" fill="#404852"/>
<rect x="78.6885" y="39.4088" width="1.47541" height="1.47783" fill="#404852"/>
<rect x="88.5246" y="39.4088" width="1.47541" height="1.47783" fill="#404852"/>
<rect y="49.2611" width="1.47541" height="1.47783" fill="#404852"/>
<rect x="9.83606" y="49.2611" width="1.47541" height="1.47783" fill="#404852"/>
<rect x="19.6721" y="49.2611" width="1.47541" height="1.47783" fill="#404852"/>
<rect x="29.5082" y="49.2611" width="1.47541" height="1.47783" fill="#404852"/>
<rect x="39.3442" y="49.2611" width="1.47541" height="1.47783" fill="#404852"/>
<rect x="49.1803" y="49.2611" width="1.47541" height="1.47783" fill="#404852"/>
<rect x="59.0164" y="49.2611" width="1.47541" height="1.47783" fill="#404852"/>
<rect x="68.8525" y="49.2611" width="1.47541" height="1.47783" fill="#404852"/>
<rect x="78.6885" y="49.2611" width="1.47541" height="1.47783" fill="#404852"/>
<rect x="88.5246" y="49.2611" width="1.47541" height="1.47783" fill="#404852"/>
<rect y="59.1133" width="1.47541" height="1.47783" fill="#404852"/>
<rect x="9.83606" y="59.1133" width="1.47541" height="1.47783" fill="#404852"/>
<rect x="19.6721" y="59.1133" width="1.47541" height="1.47783" fill="#404852"/>
<rect x="29.5082" y="59.1133" width="1.47541" height="1.47783" fill="#404852"/>
<rect x="39.3442" y="59.1133" width="1.47541" height="1.47783" fill="#404852"/>
<rect x="49.1803" y="59.1133" width="1.47541" height="1.47783" fill="#404852"/>
<rect x="59.0164" y="59.1133" width="1.47541" height="1.47783" fill="#404852"/>
<rect x="68.8525" y="59.1133" width="1.47541" height="1.47783" fill="#404852"/>
<rect x="78.6885" y="59.1133" width="1.47541" height="1.47783" fill="#404852"/>
<rect x="88.5246" y="59.1133" width="1.47541" height="1.47783" fill="#404852"/>
<rect y="68.9656" width="1.47541" height="1.47783" fill="#404852"/>
<rect x="9.83606" y="68.9656" width="1.47541" height="1.47783" fill="#404852"/>
<rect x="19.6721" y="68.9656" width="1.47541" height="1.47783" fill="#404852"/>
<rect x="29.5082" y="68.9656" width="1.47541" height="1.47783" fill="#404852"/>
<rect x="39.3442" y="68.9656" width="1.47541" height="1.47783" fill="#404852"/>
<rect x="49.1803" y="68.9656" width="1.47541" height="1.47783" fill="#404852"/>
<rect x="59.0164" y="68.9656" width="1.47541" height="1.47783" fill="#404852"/>
<rect x="68.8525" y="68.9656" width="1.47541" height="1.47783" fill="#404852"/>
<rect x="78.6885" y="68.9656" width="1.47541" height="1.47783" fill="#404852"/>
<rect x="88.5246" y="68.9656" width="1.47541" height="1.47783" fill="#404852"/>
<rect y="78.8177" width="1.47541" height="1.47783" fill="#404852"/>
<rect x="9.83606" y="78.8177" width="1.47541" height="1.47783" fill="#404852"/>
<rect x="19.6721" y="78.8177" width="1.47541" height="1.47783" fill="#404852"/>
<rect x="29.5082" y="78.8177" width="1.47541" height="1.47783" fill="#404852"/>
<rect x="39.3442" y="78.8177" width="1.47541" height="1.47783" fill="#404852"/>
<rect x="49.1803" y="78.8177" width="1.47541" height="1.47783" fill="#404852"/>
<rect x="59.0164" y="78.8177" width="1.47541" height="1.47783" fill="#404852"/>
<rect x="68.8525" y="78.8177" width="1.47541" height="1.47783" fill="#404852"/>
<rect x="78.6885" y="78.8177" width="1.47541" height="1.47783" fill="#404852"/>
<rect x="88.5246" y="78.8177" width="1.47541" height="1.47783" fill="#404852"/>
<rect y="88.6699" width="1.47541" height="1.47783" fill="#404852"/>
<rect x="9.83606" y="88.6699" width="1.47541" height="1.47783" fill="#404852"/>
<rect x="19.6721" y="88.6699" width="1.47541" height="1.47783" fill="#404852"/>
<rect x="29.5082" y="88.6699" width="1.47541" height="1.47783" fill="#404852"/>
<rect x="39.3442" y="88.6699" width="1.47541" height="1.47783" fill="#404852"/>
<rect x="49.1803" y="88.6699" width="1.47541" height="1.47783" fill="#404852"/>
<rect x="59.0164" y="88.6699" width="1.47541" height="1.47783" fill="#404852"/>
<rect x="68.8525" y="88.6699" width="1.47541" height="1.47783" fill="#404852"/>
<rect x="78.6885" y="88.6699" width="1.47541" height="1.47783" fill="#404852"/>
<rect x="88.5246" y="88.6699" width="1.47541" height="1.47783" fill="#404852"/>
<rect y="98.5222" width="1.47541" height="1.47783" fill="#404852"/>
<rect x="9.83606" y="98.5222" width="1.47541" height="1.47783" fill="#404852"/>
<rect x="19.6721" y="98.5222" width="1.47541" height="1.47783" fill="#404852"/>
<rect x="29.5082" y="98.5222" width="1.47541" height="1.47783" fill="#404852"/>
<rect x="39.3442" y="98.5222" width="1.47541" height="1.47783" fill="#404852"/>
<rect x="49.1803" y="98.5222" width="1.47541" height="1.47783" fill="#404852"/>
<rect x="59.0164" y="98.5222" width="1.47541" height="1.47783" fill="#404852"/>
<rect x="68.8525" y="98.5222" width="1.47541" height="1.47783" fill="#404852"/>
<rect x="78.6885" y="98.5222" width="1.47541" height="1.47783" fill="#404852"/>
<rect x="88.5246" y="98.5222" width="1.47541" height="1.47783" fill="#404852"/>
</g>
</svg>
