<svg width="24" height="24" viewBox="0 0 24 24" fill="none" xmlns="http://www.w3.org/2000/svg">
<path fill-rule="evenodd" clip-rule="evenodd" d="M12.825 2.02502L20.025 9.75002C20.25 10.05 20.4 10.425 20.4 10.8V19.5C20.4 20.325 19.725 21 18.9 21H4.5C3.675 21 3 20.325 3 19.5V10.8C3 10.425 3.15 10.05 3.375 9.75002L10.575 2.02502C11.175 1.42502 12.075 1.35002 12.675 1.95002C12.75 2.02502 12.75 2.02502 12.825 2.02502Z" stroke="#1EA59A" stroke-width="2" stroke-linecap="round" stroke-linejoin="round"/>
<path fill-rule="evenodd" clip-rule="evenodd" d="M11.7 14.1C13.0669 14.1 14.175 12.9919 14.175 11.625C14.175 10.2581 13.0669 9.15002 11.7 9.15002C10.3331 9.15002 9.22501 10.2581 9.22501 11.625C9.22501 12.9919 10.3331 14.1 11.7 14.1Z" stroke="#1EA59A" stroke-width="2" stroke-linecap="round" stroke-linejoin="round"/>
<path d="M10.65 17.175H12.75" stroke="#1EA59A" stroke-width="2" stroke-linecap="round" stroke-linejoin="round"/>
</svg>
