<svg width="24" height="24" viewBox="0 0 24 24" fill="none" xmlns="http://www.w3.org/2000/svg">
<path d="M20.175 8.85C21.525 8.55 22.5 7.35 22.5 6C22.5 4.35 21.15 3 19.575 3C18.45 3 17.475 3.675 16.95 4.575" stroke="#1EA59A" stroke-width="2" stroke-linecap="round" stroke-linejoin="round"/>
<path d="M7.125 4.65C6.6 3.675 5.625 3 4.425 3C2.85 3 1.5 4.35 1.5 5.925C1.5 7.35 2.55 8.55 3.9 8.85" stroke="#1EA59A" stroke-width="2" stroke-linecap="round" stroke-linejoin="round"/>
<path d="M11.475 7.19995V12.075" stroke="#1EA59A" stroke-width="2" stroke-linecap="round" stroke-linejoin="round"/>
<path d="M14.475 12.075H11.475" stroke="#1EA59A" stroke-width="2" stroke-linecap="round" stroke-linejoin="round"/>
<path fill-rule="evenodd" clip-rule="evenodd" d="M20.025 11.025C20.025 15.45 16.425 19.05 12 19.05C7.49999 19.125 3.89999 15.525 3.89999 11.025C3.89999 6.6 7.49999 3 11.925 3C16.425 3 20.025 6.6 20.025 11.025Z" stroke="#1EA59A" stroke-width="2" stroke-linecap="round" stroke-linejoin="round"/>
<path d="M7.73571 17.7858L6.16071 21.7608" stroke="#1EA59A" stroke-width="2" stroke-linecap="round" stroke-linejoin="round"/>
<path d="M17.0357 17.7858L18.6107 21.7608" stroke="#1EA59A" stroke-width="2" stroke-linecap="round" stroke-linejoin="round"/>
</svg>
